<?xml version="1.0" standalone="no"?>
<!DOCTYPE svg PUBLIC "-//W3C//DTD SVG 20010904//EN"
 "http://www.w3.org/TR/2001/REC-SVG-20010904/DTD/svg10.dtd">
<svg version="1.0" xmlns="http://www.w3.org/2000/svg"
 width="256.000000pt" height="256.000000pt" viewBox="0 0 256.000000 256.000000"
 preserveAspectRatio="xMidYMid meet">

<g transform="translate(0.000000,256.000000) scale(0.100000,-0.100000)"
fill="#000000" stroke="none">
<path d="M1050 2540 c-261 -46 -483 -163 -675 -355 -258 -258 -386 -584 -372
-950 12 -294 93 -518 272 -750 283 -365 758 -546 1227 -466 267 46 488 161
683 356 258 258 386 585 372 950 -9 211 -47 363 -137 540 -255 502 -808 774
-1370 675z m378 -436 c12 -8 22 -25 22 -36 0 -21 0 -21 24 2 l25 23 7 -27 c8
-31 11 -32 40 -5 28 26 41 19 50 -26 6 -35 17 -44 29 -25 14 23 25 7 25 -36 0
-40 2 -45 20 -39 10 3 34 -2 52 -11 l33 -17 -25 -16 c-45 -29 -80 -69 -86
-100 -4 -16 -16 -39 -29 -51 l-22 -21 -56 21 c-34 13 -76 40 -107 69 -48 45
-50 49 -40 77 15 37 22 202 9 209 -11 7 -12 25 -1 25 4 0 18 -7 30 -16z m-663
-348 c2 -6 14 -95 26 -198 l24 -188 32 0 33 0 2 150 c0 83 1 155 2 162 1 7
-10 15 -24 18 -20 5 -25 12 -25 35 l0 30 78 3 77 3 0 -36 c0 -28 -4 -35 -19
-35 -27 0 -31 -25 -31 -192 0 -140 -1 -148 -19 -148 -22 0 -27 -12 -36 -85
l-7 -50 30 47 c31 47 57 68 86 68 29 0 17 -34 -20 -60 -22 -14 -44 -42 -55
-68 -20 -46 -25 -127 -9 -137 5 -3 26 3 47 14 37 18 39 22 56 107 19 96 35
135 55 142 9 3 12 -22 12 -101 0 -81 3 -107 15 -117 19 -16 20 -60 0 -60 -7 0
-18 8 -24 18 -14 25 -43 5 -54 -39 -5 -19 -12 -28 -14 -21 -3 6 -9 10 -14 6
-5 -3 -9 2 -9 11 0 13 -6 12 -38 -6 -47 -27 -68 -21 -78 23 l-7 33 -11 -49
-11 -49 -47 -4 c-47 -4 -48 -4 -48 23 0 31 -15 23 -22 -11 -2 -11 -10 -19 -16
-17 -35 7 -101 8 -129 1 l-33 -7 0 48 c0 50 -12 69 -33 52 -12 -11 -64 -5 -72
7 -2 4 2 43 10 87 8 43 15 86 15 94 1 8 6 4 11 -10 6 -14 8 -46 4 -72 -7 -57
11 -66 21 -10 4 20 13 49 20 64 8 15 14 35 13 45 0 15 -2 14 -11 -4 -14 -30
-20 -29 -35 4 -23 49 -17 63 25 63 28 0 47 8 69 28 29 26 31 34 53 192 31 217
29 212 86 209 25 -2 47 -8 49 -13z m340 -191 l0 -200 -30 0 -30 1 -3 189 c-1
104 0 195 3 203 3 8 16 12 32 10 l28 -3 0 -200z m101 155 c2 -58 -5 -88 -16
-69 -7 10 -11 10 -24 0 -14 -12 -16 -10 -16 13 0 23 9 31 33 27 5 -1 5 3 2 9
-4 6 -13 9 -21 6 -10 -4 -14 3 -14 23 0 34 8 43 35 39 16 -2 20 -11 21 -48z
m251 37 c3 -4 53 -363 53 -384 0 -14 -28 -17 -54 -7 -9 3 -16 16 -16 28 0 32
-15 48 -41 44 -20 -2 -25 -10 -27 -40 -3 -36 -5 -38 -38 -38 -23 0 -34 5 -34
15 0 18 48 341 56 374 5 22 8 23 51 17 26 -3 48 -8 50 -9z m-247 -217 l0 -90
30 0 c76 0 31 -69 -49 -76 l-41 -4 0 120 c0 116 1 121 23 130 12 5 25 9 30 9
4 1 7 -39 7 -89z m67 -192 c-3 -13 -18 -87 -33 -166 -26 -133 -42 -166 -45
-87 -2 71 -15 67 -34 -12 -17 -73 -19 -76 -28 -49 -7 22 -4 61 13 155 13 69
27 134 32 144 13 26 28 11 28 -29 0 -45 16 -44 23 2 6 37 23 64 39 64 6 0 8
-10 5 -22z m397 -80 c-4 -51 -11 -101 -16 -110 -18 -36 1 -65 50 -78 26 -6 56
-15 67 -19 19 -8 19 -8 -4 -20 -28 -15 -94 -21 -150 -14 -34 5 -41 9 -35 22
11 27 22 82 35 176 11 88 29 135 50 135 6 0 7 -32 3 -92z m410 68 c3 -14 1
-36 -5 -50 -11 -24 -13 -24 -25 -8 -23 31 -28 -12 -8 -67 16 -45 16 -56 4
-107 -8 -32 -24 -69 -36 -83 -22 -26 -23 -26 -38 -6 -17 22 -22 100 -7 109 5
3 12 -5 15 -19 14 -57 40 -7 29 58 -3 20 -9 37 -14 37 -20 0 -8 77 18 118 31
47 58 54 67 18z m-97 0 c-2 -6 -24 -24 -50 -41 -54 -35 -61 -56 -16 -50 28 3
30 1 27 -23 -2 -19 -12 -31 -35 -41 -20 -9 -33 -23 -36 -40 -7 -33 5 -46 31
-32 52 28 56 1 6 -45 -42 -40 -66 -42 -100 -10 -23 21 -25 26 -13 47 7 13 14
40 16 59 2 19 9 53 14 75 6 22 13 54 16 72 5 35 17 39 101 40 27 0 42 -4 39
-11z m-521 -18 c11 -32 5 -58 -18 -91 -17 -23 -18 -33 -9 -59 16 -45 14 -54
-20 -92 -30 -35 -80 -66 -105 -66 -18 0 -27 17 -17 33 11 17 31 134 32 189 1
45 2 47 54 76 63 37 73 38 83 10z m74 -82 c0 -80 3 -106 15 -116 19 -16 20
-60 0 -60 -7 0 -18 7 -23 16 -14 25 -48 2 -57 -38 -4 -18 -9 -27 -12 -20 -2 6
-9 10 -13 7 -17 -11 42 279 62 302 22 27 28 9 28 -91z m-239 -59 c-12 -89 -20
-121 -33 -128 -27 -15 -28 1 -8 92 11 46 20 101 20 121 0 34 16 54 31 39 4 -3
-1 -59 -10 -124z"/>
<path d="M1460 1964 c0 -8 5 -12 10 -9 6 4 8 11 5 16 -9 14 -15 11 -15 -7z"/>
<path d="M1525 1951 c-3 -5 -1 -12 5 -16 5 -3 10 1 10 9 0 18 -6 21 -15 7z"/>
<path d="M1590 1891 c0 -6 5 -13 10 -16 6 -3 10 1 10 9 0 9 -4 16 -10 16 -5 0
-10 -4 -10 -9z"/>
<path d="M1464 1845 c-1 -16 3 -25 13 -25 10 0 12 -6 8 -19 -7 -23 22 -45 73
-56 63 -13 34 43 -55 103 -39 27 -38 27 -39 -3z"/>
<path d="M1420 1830 c0 -5 5 -10 11 -10 5 0 7 5 4 10 -3 6 -8 10 -11 10 -2 0
-4 -4 -4 -10z"/>
<path d="M1590 1801 c12 -23 30 -36 30 -22 0 10 -27 41 -36 41 -3 0 0 -9 6
-19z"/>
<path d="M707 1643 c-2 -4 -7 -36 -11 -70 -7 -59 -6 -63 14 -63 19 0 20 4 14
68 -7 71 -9 78 -17 65z"/>
<path d="M677 1413 c-4 -18 -1 -32 9 -39 8 -6 12 -19 8 -28 -5 -13 1 -16 40
-16 32 0 46 4 46 14 0 7 -9 16 -19 19 -14 3 -21 15 -23 38 -2 28 -8 35 -29 37
-22 3 -27 -2 -32 -25z"/>
<path d="M600 1288 c0 -7 -7 -64 -15 -127 -9 -64 -12 -118 -7 -123 5 -5 29
-10 53 -11 38 -2 44 1 44 17 0 14 -10 22 -34 28 l-34 9 7 55 c3 30 9 79 12
109 6 47 4 55 -10 55 -9 0 -16 -6 -16 -12z"/>
<path d="M790 1280 c-6 -10 -13 -40 -16 -64 -6 -39 -3 -50 20 -80 29 -39 32
-58 13 -75 -16 -13 -37 4 -37 31 0 10 -4 18 -10 18 -13 0 -13 -56 0 -81 6 -10
21 -19 34 -19 26 0 42 28 52 88 5 32 1 43 -21 70 -16 19 -25 41 -23 54 4 30
32 30 36 1 2 -13 8 -23 13 -23 13 0 11 74 -3 88 -18 18 -46 14 -58 -8z"/>
<path d="M680 1272 c-30 -24 -43 -91 -27 -139 10 -33 17 -38 45 -41 29 -3 34
1 47 32 38 91 -7 195 -65 148z m48 -72 c2 -20 -4 -43 -13 -55 -15 -19 -15 -19
-29 -2 -8 11 -13 24 -11 30 2 7 6 25 10 40 9 42 39 32 43 -13z"/>
<path d="M1434 1675 c5 -11 9 -62 11 -113 1 -51 5 -96 9 -99 3 -4 6 -17 6 -29
0 -13 5 -26 10 -29 13 -8 12 7 -8 152 -9 67 -21 125 -26 130 -5 5 -6 0 -2 -12z"/>
<path d="M1397 1605 c-11 -79 -9 -97 10 -93 14 3 17 12 14 52 -5 79 -17 99
-24 41z"/>
<path d="M1403 1270 c-32 -26 -56 -90 -33 -90 6 0 10 5 10 12 0 7 14 27 32 45
36 37 28 64 -9 33z"/>
<path d="M1366 1127 c-10 -7 -17 -21 -15 -30 3 -14 8 -15 29 -4 27 14 40 47
18 47 -8 0 -22 -6 -32 -13z"/>
</g>
</svg>
