<?xml version="1.0" encoding="UTF-8"?>
<svg xmlns="http://www.w3.org/2000/svg" xmlns:xlink="http://www.w3.org/1999/xlink" viewBox="0 0 64 64" width="64px" height="64px">
<defs>
<radialGradient id="radial0" gradientUnits="userSpaceOnUse" cx="65.803291" cy="164.843399" fx="65.803291" fy="164.843399" r="196.283463" gradientTransform="matrix(0.372093,0,0,0.372093,0,0)">
<stop offset="0" style="stop-color:rgb(100%,86.666667%,33.333334%);stop-opacity:1;"/>
<stop offset="0.328" style="stop-color:rgb(100%,32.941177%,24.705882%);stop-opacity:1;"/>
<stop offset="0.348" style="stop-color:rgb(98.823529%,32.156864%,27.058825%);stop-opacity:1;"/>
<stop offset="0.504" style="stop-color:rgb(90.196079%,27.843139%,44.313726%);stop-opacity:1;"/>
<stop offset="0.643" style="stop-color:rgb(83.529413%,24.313726%,56.862748%);stop-opacity:1;"/>
<stop offset="0.761" style="stop-color:rgb(80.000001%,22.352941%,64.313728%);stop-opacity:1;"/>
<stop offset="0.841" style="stop-color:rgb(78.431374%,21.568628%,67.058825%);stop-opacity:1;"/>
</radialGradient>
<radialGradient id="radial1" gradientUnits="userSpaceOnUse" cx="32.604858" cy="5.30075" fx="32.604858" fy="5.30075" r="130.332504" gradientTransform="matrix(0.372093,0,0,0.372093,0,0)">
<stop offset="0" style="stop-color:rgb(25.490198%,40.784314%,78.823531%);stop-opacity:1;"/>
<stop offset="0.999" style="stop-color:rgb(25.490198%,40.784314%,78.823531%);stop-opacity:0;"/>
</radialGradient>
</defs>
<g id="surface366371099">
<rect x="0" y="0" width="64" height="64" style="fill:rgb(100%,100%,100%);fill-opacity:1;stroke:none;"/>
<path style=" stroke:none;fill-rule:nonzero;fill:url(#radial0);" d="M 48.292969 61.265625 L 15.761719 61.292969 C 8.605469 61.300781 2.742188 55.453125 2.734375 48.292969 L 2.703125 15.761719 C 2.699219 8.605469 8.546875 2.742188 15.703125 2.734375 L 48.238281 2.703125 C 55.394531 2.699219 61.253906 8.546875 61.265625 15.703125 L 61.292969 48.238281 C 61.304688 55.398438 55.453125 61.257812 48.292969 61.265625 Z M 48.292969 61.265625 "/>
<path style=" stroke:none;fill-rule:nonzero;fill:url(#radial1);" d="M 48.292969 61.265625 L 15.761719 61.292969 C 8.605469 61.300781 2.742188 55.453125 2.734375 48.292969 L 2.703125 15.761719 C 2.699219 8.605469 8.546875 2.742188 15.703125 2.734375 L 48.238281 2.703125 C 55.394531 2.699219 61.253906 8.546875 61.265625 15.703125 L 61.292969 48.238281 C 61.304688 55.398438 55.453125 61.257812 48.292969 61.265625 Z M 48.292969 61.265625 "/>
<path style=" stroke:none;fill-rule:nonzero;fill:rgb(100%,100%,100%);fill-opacity:1;" d="M 32 43.386719 C 25.722656 43.386719 20.613281 38.277344 20.613281 32 C 20.613281 25.722656 25.722656 20.613281 32 20.613281 C 38.277344 20.613281 43.386719 25.722656 43.386719 32 C 43.386719 38.277344 38.277344 43.386719 32 43.386719 Z M 32 23.867188 C 27.515625 23.867188 23.867188 27.515625 23.867188 32 C 23.867188 36.484375 27.515625 40.132812 32 40.132812 C 36.484375 40.132812 40.132812 36.484375 40.132812 32 C 40.132812 27.515625 36.484375 23.867188 32 23.867188 Z M 32 23.867188 "/>
<path style=" stroke:none;fill-rule:nonzero;fill:rgb(100%,100%,100%);fill-opacity:1;" d="M 46.640625 19.800781 C 46.640625 21.148438 45.546875 22.238281 44.199219 22.238281 C 42.851562 22.238281 41.761719 21.148438 41.761719 19.800781 C 41.761719 18.453125 42.851562 17.359375 44.199219 17.359375 C 45.546875 17.359375 46.640625 18.453125 46.640625 19.800781 Z M 46.640625 19.800781 "/>
<path style=" stroke:none;fill-rule:nonzero;fill:rgb(100%,100%,100%);fill-opacity:1;" d="M 41.761719 53.148438 L 22.238281 53.148438 C 15.960938 53.148438 10.851562 48.039062 10.851562 41.761719 L 10.851562 22.238281 C 10.851562 15.960938 15.960938 10.851562 22.238281 10.851562 L 41.761719 10.851562 C 48.039062 10.851562 53.148438 15.960938 53.148438 22.238281 L 53.148438 41.761719 C 53.148438 48.039062 48.039062 53.148438 41.761719 53.148438 Z M 22.238281 14.105469 C 17.753906 14.105469 14.105469 17.753906 14.105469 22.238281 L 14.105469 41.761719 C 14.105469 46.246094 17.753906 49.894531 22.238281 49.894531 L 41.761719 49.894531 C 46.246094 49.894531 49.894531 46.246094 49.894531 41.761719 L 49.894531 22.238281 C 49.894531 17.753906 46.246094 14.105469 41.761719 14.105469 Z M 22.238281 14.105469 "/>
</g>
</svg>
