<?xml version="1.0" encoding="UTF-8"?>
<svg xmlns="http://www.w3.org/2000/svg" xmlns:xlink="http://www.w3.org/1999/xlink" viewBox="0 0 80 80" width="80px" height="80px">
<g id="surface241924577">
<path style=" stroke:none;fill-rule:nonzero;fill:rgb(100%,100%,100%);fill-opacity:1;" d="M 25.601562 4.800781 C 14.132812 4.800781 4.800781 14.132812 4.800781 25.601562 L 4.800781 54.398438 C 4.800781 65.867188 14.132812 75.199219 25.601562 75.199219 L 54.398438 75.199219 C 65.867188 75.199219 75.199219 65.867188 75.199219 54.398438 L 75.199219 25.601562 C 75.199219 14.132812 65.867188 4.800781 54.398438 4.800781 Z M 25.601562 8 L 54.398438 8 C 64.136719 8 72 15.863281 72 25.601562 L 72 54.398438 C 72 64.136719 64.136719 72 54.398438 72 L 25.601562 72 C 15.863281 72 8 64.136719 8 54.398438 L 8 25.601562 C 8 15.863281 15.863281 8 25.601562 8 Z M 59.199219 17.601562 C 57.433594 17.601562 56 19.03125 56 20.800781 C 56 22.566406 57.433594 24 59.199219 24 C 60.96875 24 62.398438 22.566406 62.398438 20.800781 C 62.398438 19.03125 60.96875 17.601562 59.199219 17.601562 Z M 40 22.398438 C 30.296875 22.398438 22.398438 30.296875 22.398438 40 C 22.398438 49.703125 30.296875 57.601562 40 57.601562 C 49.703125 57.601562 57.601562 49.703125 57.601562 40 C 57.601562 30.296875 49.703125 22.398438 40 22.398438 Z M 40 25.601562 C 47.972656 25.601562 54.398438 32.027344 54.398438 40 C 54.398438 47.972656 47.972656 54.398438 40 54.398438 C 32.027344 54.398438 25.601562 47.972656 25.601562 40 C 25.601562 32.027344 32.027344 25.601562 40 25.601562 Z M 40 25.601562 "/>
</g>
</svg>
