<?xml version="1.0" encoding="UTF-8"?>
<svg xmlns="http://www.w3.org/2000/svg" xmlns:xlink="http://www.w3.org/1999/xlink" viewBox="0 0 80 80" width="80px" height="80px">
<g id="surface241920761">
<path style=" stroke:none;fill-rule:nonzero;fill:rgb(100%,100%,100%);fill-opacity:1;" d="M 39.042969 14.398438 C 28.480469 14.398438 18.5625 15.199219 13.28125 16.320312 C 9.761719 17.117188 6.71875 19.519531 6.082031 23.199219 C 5.445312 27.039062 4.800781 32.800781 4.800781 40 C 4.800781 47.199219 5.4375 52.800781 6.238281 56.800781 C 6.882812 60.320312 9.917969 62.882812 13.4375 63.679688 C 19.042969 64.800781 28.636719 65.601562 39.199219 65.601562 C 49.761719 65.601562 59.355469 64.800781 64.957031 63.679688 C 68.480469 62.882812 71.519531 60.480469 72.15625 56.800781 C 72.800781 52.800781 73.601562 47.042969 73.757812 39.84375 C 73.757812 32.644531 72.957031 26.882812 72.15625 22.882812 C 71.519531 19.363281 68.480469 16.800781 64.957031 16 C 59.355469 15.199219 49.601562 14.398438 39.042969 14.398438 Z M 39.042969 17.601562 C 50.5625 17.601562 59.835938 18.554688 64.320312 19.355469 C 66.71875 20 68.636719 21.601562 68.957031 23.679688 C 69.917969 28.800781 70.554688 34.242188 70.554688 39.84375 C 70.398438 46.71875 69.601562 52.320312 68.957031 56.320312 C 68.480469 59.355469 65.28125 60.320312 64.320312 60.644531 C 58.554688 61.761719 48.957031 62.554688 39.355469 62.554688 C 29.757812 62.554688 20 61.917969 14.398438 60.644531 C 12 60 10.082031 58.398438 9.761719 56.320312 C 8.480469 51.835938 8 45.917969 8 40 C 8 32.636719 8.644531 27.199219 9.28125 23.84375 C 9.761719 20.800781 13.117188 19.835938 13.917969 19.519531 C 19.199219 18.398438 28.960938 17.601562 39.042969 17.601562 Z M 30.398438 27.199219 L 30.398438 52.800781 L 52.800781 40 Z M 33.601562 32.644531 L 46.398438 40 L 33.601562 47.355469 Z M 33.601562 32.644531 "/>
</g>
</svg>
